<?xml version="1.0" encoding="UTF-8" standalone="no"?>
<svg
   width="100%"
   height="100%"
   viewBox="0 0 424 224"
   version="1.1"
   xml:space="preserve"
   style="fill-rule:evenodd;clip-rule:evenodd;stroke-linejoin:round;stroke-miterlimit:2;"
   id="svg35"
   sodipodi:docname="rhai-logo-transparent-colour-white.svg"
   inkscape:version="1.1 (c68e22c387, 2021-05-23)"
   xmlns:inkscape="http://www.inkscape.org/namespaces/inkscape"
   xmlns:sodipodi="http://sodipodi.sourceforge.net/DTD/sodipodi-0.dtd"
   xmlns="http://www.w3.org/2000/svg"
   xmlns:svg="http://www.w3.org/2000/svg"><sodipodi:namedview
   id="namedview37"
   pagecolor="#ffffff"
   bordercolor="#666666"
   borderopacity="1.0"
   inkscape:pageshadow="2"
   inkscape:pageopacity="0.0"
   inkscape:pagecheckerboard="0"
   showgrid="false"
   inkscape:zoom="3.2240566"
   inkscape:cx="171.9883"
   inkscape:cy="112.12582"
   inkscape:window-width="2560"
   inkscape:window-height="1351"
   inkscape:window-x="0"
   inkscape:window-y="0"
   inkscape:window-maximized="1"
   inkscape:current-layer="g22" />
    <g
   transform="translate(-1018,-113)"
   id="g26">
        <g
   transform="matrix(1,0,0,0.75,830,0)"
   id="g24">
            <g
   transform="matrix(1,0,0,1.33333,0,-112.407)"
   id="g4">
                <path
   d="m 244.724,402.002 h -18.61 c -20.542,0 -37.22,-16.678 -37.22,-37.22 v -111.66 l 0.001,0.12 c 0.064,10.176 8.313,18.425 18.489,18.49 h 0.12 10.784 c -7.253,-14.84 -4.716,-33.277 7.614,-45.606 l 28.127,-28.128 c 0,0 28.128,28.128 28.128,28.128 12.329,12.329 14.866,30.766 7.613,45.606 h 10.784 0.12 c 10.176,-0.065 18.425,-8.314 18.49,-18.49 v -0.12 111.66 c 0,20.542 -16.678,37.22 -37.22,37.22 h -18.61 v 18.61 h -18.61 z m 0,-18.61 v -18.61 c 0,-10.271 -8.339,-18.61 -18.61,-18.61 h -18.61 v 18.61 c 0,10.271 8.339,18.61 18.61,18.61 z m 18.61,-18.61 c 0,-10.271 8.339,-18.61 18.61,-18.61 h 18.61 v 18.61 c 0,10.271 -8.339,18.61 -18.61,18.61 h -18.61 z m 0,-55.83 c 0,-10.271 8.339,-18.61 18.61,-18.61 h 18.61 v 18.61 c 0,10.271 -8.339,18.61 -18.61,18.61 h -18.61 z m -18.61,0 c 0,-10.271 -8.339,-18.61 -18.61,-18.61 h -18.61 v 18.61 c 0,10.271 8.339,18.61 18.61,18.61 h 18.61 z m 22.464,-41.54 c 7.263,-7.262 7.263,-19.055 0,-26.318 0,0 -13.159,-13.159 -13.159,-13.159 l -13.159,13.159 c -7.263,7.263 -7.263,19.056 0,26.318 l 13.159,13.16 z"
   style="fill:url(#_Linear1)"
   id="path2" />
            </g>
            <g
   transform="matrix(1,0,0,1.33333,95.1496,-261.61)"
   id="g22">
                <g
   transform="matrix(144,0,0,144,256.612,491.233)"
   id="g8"
   style="fill:#ffffff;fill-opacity:1">
                    <path
   d="m 0.231,-0.512 c 0.015,-0.01 0.032,-0.018 0.05,-0.023 0.02,-0.005 0.039,-0.008 0.058,-0.008 0.013,0 0.024,0.001 0.035,0.003 v 0.112 C 0.362,-0.431 0.349,-0.433 0.336,-0.433 c -0.027,0 -0.052,0.006 -0.074,0.018 -0.024,0.013 -0.042,0.032 -0.053,0.056 -0.012,0.024 -0.018,0.052 -0.018,0.085 V 0 H 0.07 v -0.54 h 0.107 v 0.086 C 0.192,-0.479 0.21,-0.499 0.231,-0.512 Z"
   style="fill-rule:nonzero;fill:#ffffff;fill-opacity:1"
   id="path6" />
                </g>
                <g
   transform="matrix(144,0,0,144,314.068,491.233)"
   id="g12">
                    <path
   d="m 0.353,-0.555 c 0.085,0 0.142,0.027 0.171,0.083 0.028,0.054 0.042,0.111 0.042,0.17 V 0 H 0.444 v -0.26 c 0,-0.121 -0.042,-0.182 -0.127,-0.182 -0.036,0 -0.066,0.012 -0.09,0.037 -0.024,0.025 -0.036,0.067 -0.036,0.127 V 0 H 0.069 v -0.72 h 0.108 v 0.24 c 0.041,-0.05 0.1,-0.075 0.176,-0.075 z"
   style="fill:#ffffff;fill-opacity:1;fill-rule:nonzero"
   id="path10"
   inkscape:label="path10" />
                </g>
                <g
   transform="matrix(144,0,0,144,404.212,491.233)"
   id="g16"
   style="fill:#ffffff;fill-opacity:1">
                    <path
   d="m 0.496,-0.455 c 0.009,0.017 0.014,0.035 0.017,0.053 0.002,0.019 0.003,0.042 0.003,0.071 V 0 H 0.411 v -0.073 c -0.023,0.03 -0.05,0.052 -0.08,0.066 C 0.3,0.008 0.264,0.015 0.221,0.015 0.183,0.015 0.15,0.008 0.123,-0.007 0.096,-0.022 0.075,-0.041 0.061,-0.066 0.047,-0.091 0.04,-0.118 0.04,-0.148 c 0,-0.039 0.01,-0.073 0.03,-0.1 C 0.09,-0.275 0.121,-0.295 0.163,-0.31 0.189,-0.318 0.22,-0.325 0.256,-0.332 0.292,-0.338 0.339,-0.345 0.398,-0.353 0.396,-0.385 0.386,-0.408 0.369,-0.423 0.351,-0.438 0.324,-0.445 0.287,-0.445 0.26,-0.445 0.236,-0.439 0.215,-0.427 0.193,-0.414 0.178,-0.395 0.17,-0.369 L 0.059,-0.404 c 0.014,-0.047 0.04,-0.084 0.079,-0.111 0.038,-0.027 0.088,-0.04 0.15,-0.04 0.105,0 0.174,0.033 0.208,0.1 z m -0.112,0.284 c 0.007,-0.017 0.012,-0.045 0.013,-0.084 -0.039,0.006 -0.073,0.012 -0.102,0.018 -0.03,0.005 -0.054,0.011 -0.071,0.016 -0.022,0.009 -0.038,0.018 -0.05,0.029 -0.01,0.011 -0.016,0.025 -0.016,0.042 0,0.021 0.008,0.037 0.023,0.05 0.015,0.013 0.036,0.019 0.064,0.019 0.037,0 0.068,-0.009 0.093,-0.028 0.024,-0.019 0.039,-0.039 0.046,-0.062 z"
   style="fill-rule:nonzero;fill:#ffffff;fill-opacity:1"
   id="path14" />
                </g>
                <g
   transform="matrix(144,0,0,144,487.156,491.233)"
   id="g20"
   style="fill:#ffffff;fill-opacity:1">
                    <path
   d="M 0.08,-0.734 H 0.2 v 0.11 H 0.08 Z m 0,0.194 H 0.2 V 0 H 0.08 Z"
   style="fill-rule:nonzero;fill:#ffffff;fill-opacity:1"
   id="path18" />
                </g>
            </g>
        </g>
    </g>
    <defs
   id="defs33">
        <linearGradient
   id="_Linear1"
   x1="0"
   y1="0"
   x2="1"
   y2="0"
   gradientUnits="userSpaceOnUse"
   gradientTransform="matrix(1.36312e-14,222.614,-222.614,1.36312e-14,254.029,197.998)"><stop
     offset="0"
     style="stop-color:rgb(255,215,118);stop-opacity:1"
     id="stop28" /><stop
     offset="1"
     style="stop-color:rgb(246,117,0);stop-opacity:1"
     id="stop30" /></linearGradient>
    </defs>
</svg>
