<?xml version="1.0" encoding="UTF-8"?>
<svg clip-rule="evenodd" fill-rule="evenodd" stroke-linejoin="round" stroke-miterlimit="2" version="1.1" viewBox="0 0 170.27 222.61" xml:space="preserve" xmlns="http://www.w3.org/2000/svg">
    <g transform="translate(-168.89 -113.68)">
        <g transform="scale(1 .75)">
            <g transform="matrix(1,0,0,1.3333,0,-112.41)">
                <path d="m244.72 402h-18.61c-20.542 0-37.22-16.678-37.22-37.22v-111.66l1e-3 0.12c0.064 10.176 8.313 18.425 18.489 18.49h10.904c-7.253-14.84-4.716-33.277 7.614-45.606l28.127-28.128 28.128 28.128c12.329 12.329 14.866 30.766 7.613 45.606h10.904c10.176-0.065 18.425-8.314 18.49-18.49v-0.12 111.66c0 20.542-16.678 37.22-37.22 37.22h-18.61v18.61h-18.61zm0-18.61v-18.61c0-10.271-8.339-18.61-18.61-18.61h-18.61v18.61c0 10.271 8.339 18.61 18.61 18.61zm18.61-18.61c0-10.271 8.339-18.61 18.61-18.61h18.61v18.61c0 10.271-8.339 18.61-18.61 18.61h-18.61zm0-55.83c0-10.271 8.339-18.61 18.61-18.61h18.61v18.61c0 10.271-8.339 18.61-18.61 18.61h-18.61zm-18.61 0c0-10.271-8.339-18.61-18.61-18.61h-18.61v18.61c0 10.271 8.339 18.61 18.61 18.61h18.61zm22.464-41.54c7.263-7.262 7.263-19.055 0-26.318l-13.159-13.159-13.159 13.159c-7.263 7.263-7.263 19.056 0 26.318l13.159 13.16z"/>
            </g>
        </g>
    </g>
</svg>
